<svg xmlns="http://www.w3.org/2000/svg" width="10.420" height="12.469" viewBox="0 0 10.420 12.469" fill="none">
  <path d="M 10.42 6.234 L 10.42 8.283 C 10.42 10.598 8.461 12.469 6.145 12.469 L 6.234 12.469 L 6.234 10.42 L 6.145 10.42 C 7.303 10.42 8.283 9.441 8.283 8.283 L 8.283 6.234 L 10.42 6.234 Z M 8.283 4.186 C 8.283 3.919 8.283 3.83 8.194 3.652 C 7.927 2.761 7.125 2.048 6.145 2.048 L 2.048 2.048 L 2.048 10.331 L 4.097 10.331 L 4.097 12.469 L 0 12.469 L 0 0 L 6.234 0 C 8.372 0 10.064 1.514 10.331 3.563 C 10.331 3.741 10.42 3.919 10.42 4.186 L 8.283 4.186 Z" fill="currentColor" fill-rule="nonzero"></path>
</svg>