<svg xmlns="http://www.w3.org/2000/svg" width="15.501" height="15.501" viewBox="0 0 15.501 15.501" fill="none">
  <path d="M 13.231 2.27 C 16.258 5.298 16.258 10.203 13.231 13.231 C 10.203 16.258 5.298 16.258 2.27 13.231 C -0.757 10.203 -0.757 5.298 2.27 2.27 C 5.298 -0.757 10.203 -0.757 13.231 2.27 Z M 3.331 12.17 C 5.762 14.601 9.717 14.623 12.17 12.17 C 14.601 9.739 14.601 5.762 12.17 3.331 C 9.717 0.878 5.762 0.9 3.331 3.331 C 0.878 5.784 0.878 9.717 3.331 12.17 Z M 11.352 8.612 L 8.612 8.612 L 8.59 11.374 C 8.612 11.573 8.436 11.75 8.215 11.75 L 7.242 11.75 C 7.021 11.75 6.845 11.573 6.867 11.374 L 6.867 8.634 L 4.105 8.612 C 3.906 8.634 3.729 8.458 3.729 8.237 L 3.729 7.264 C 3.729 7.043 3.906 6.867 4.105 6.889 L 6.867 6.867 L 6.867 4.127 C 6.845 3.928 7.021 3.751 7.242 3.751 L 8.215 3.751 C 8.436 3.751 8.612 3.928 8.59 4.127 L 8.612 6.889 L 11.352 6.889 C 11.551 6.867 11.728 7.043 11.728 7.264 L 11.728 8.237 C 11.728 8.458 11.551 8.634 11.352 8.612 Z" fill="currentColor" fill-rule="nonzero"></path>
</svg>