<svg xmlns="http://www.w3.org/2000/svg" width="16" height="20" viewBox="0 0 16 20" fill="none">
  <path d="M 8 14 C 9.25 14 10.313 13.562 11.188 12.687 C 12.063 11.812 12.5 10.75 12.5 9.5 C 12.5 8.25 12.063 7.187 11.188 6.312 C 10.313 5.437 9.25 5 8 5 L 8 6.5 C 8.833 6.5 9.542 6.792 10.125 7.375 C 10.708 7.958 11 8.667 11 9.5 C 11 10.333 10.708 11.042 10.125 11.625 C 9.542 12.208 8.833 12.5 8 12.5 C 7.45 12.5 6.938 12.358 6.463 12.075 C 5.988 11.792 5.617 11.408 5.35 10.925 L 4.05 11.65 C 4.45 12.383 5 12.958 5.7 13.375 C 6.4 13.792 7.167 14 8 14 Z M 4.25 10.35 C 4.467 10.35 4.646 10.279 4.788 10.137 C 4.929 9.996 5 9.817 5 9.6 C 5 9.383 4.929 9.204 4.788 9.062 C 4.646 8.921 4.467 8.85 4.25 8.85 C 4.033 8.85 3.854 8.921 3.713 9.062 C 3.571 9.204 3.5 9.383 3.5 9.6 C 3.5 9.817 3.571 9.996 3.713 10.137 C 3.854 10.279 4.033 10.35 4.25 10.35 Z M 4.8 8.25 C 5.017 8.25 5.196 8.179 5.338 8.037 C 5.479 7.896 5.55 7.717 5.55 7.5 C 5.55 7.283 5.479 7.104 5.338 6.962 C 5.196 6.821 5.017 6.75 4.8 6.75 C 4.583 6.75 4.404 6.821 4.263 6.962 C 4.121 7.104 4.05 7.283 4.05 7.5 C 4.05 7.717 4.121 7.896 4.263 8.037 C 4.404 8.179 4.583 8.25 4.8 8.25 Z M 6.25 6.875 C 6.467 6.875 6.646 6.804 6.788 6.662 C 6.929 6.521 7 6.342 7 6.125 C 7 5.908 6.929 5.729 6.788 5.587 C 6.646 5.446 6.467 5.375 6.25 5.375 C 6.033 5.375 5.854 5.446 5.713 5.587 C 5.571 5.729 5.5 5.908 5.5 6.125 C 5.5 6.342 5.571 6.521 5.713 6.662 C 5.854 6.804 6.033 6.875 6.25 6.875 Z M 8 20 C 5.683 19.417 3.771 18.087 2.263 16.012 C 0.754 13.937 0 11.633 0 9.1 L 0 3 L 8 0 L 16 3 L 16 9.1 C 16 11.633 15.246 13.937 13.738 16.012 C 12.229 18.087 10.317 19.417 8 20 Z" fill="currentColor" fill-rule="nonzero"></path>
</svg>