<svg xmlns="http://www.w3.org/2000/svg" width="18" height="16" viewBox="0 0 18 16" fill="none">
  <path d="M 3 16 C 2.167 16 1.458 15.708 0.875 15.125 C 0.292 14.542 0 13.833 0 13 C 0 12.167 0.292 11.458 0.875 10.875 C 1.458 10.292 2.167 10 3 10 C 3.833 10 4.542 10.292 5.125 10.875 C 5.708 11.458 6 12.167 6 13 C 6 13.833 5.708 14.542 5.125 15.125 C 4.542 15.708 3.833 16 3 16 Z M 15 16 C 14.167 16 13.458 15.708 12.875 15.125 C 12.292 14.542 12 13.833 12 13 C 12 12.167 12.292 11.458 12.875 10.875 C 13.458 10.292 14.167 10 15 10 C 15.833 10 16.542 10.292 17.125 10.875 C 17.708 11.458 18 12.167 18 13 C 18 13.833 17.708 14.542 17.125 15.125 C 16.542 15.708 15.833 16 15 16 Z M 9 6 C 8.167 6 7.458 5.708 6.875 5.125 C 6.292 4.542 6 3.833 6 3 C 6 2.167 6.292 1.458 6.875 0.875 C 7.458 0.292 8.167 0 9 0 C 9.833 0 10.542 0.292 11.125 0.875 C 11.708 1.458 12 2.167 12 3 C 12 3.833 11.708 4.542 11.125 5.125 C 10.542 5.708 9.833 6 9 6 Z" fill="currentColor" fill-rule="nonzero"></path>
</svg>