<svg xmlns="http://www.w3.org/2000/svg" width="20" height="20" viewBox="0 0 20 20" fill="none">
  <path d="M 10 20 C 8.617 20 7.317 19.737 6.1 19.212 C 4.883 18.688 3.825 17.975 2.925 17.075 C 2.025 16.175 1.313 15.117 0.788 13.9 C 0.262 12.683 0 11.383 0 10 C 0 8.617 0.262 7.317 0.788 6.1 C 1.313 4.883 2.025 3.825 2.925 2.925 C 3.825 2.025 4.883 1.313 6.1 0.788 C 7.317 0.262 8.617 0 10 0 C 11.383 0 12.683 0.262 13.9 0.788 C 15.117 1.313 16.175 2.025 17.075 2.925 C 17.975 3.825 18.688 4.883 19.212 6.1 C 19.737 7.317 20 8.617 20 10 C 20 11.383 19.737 12.683 19.212 13.9 C 18.688 15.117 17.975 16.175 17.075 17.075 C 16.175 17.975 15.117 18.688 13.9 19.212 C 12.683 19.737 11.383 20 10 20 Z M 10 18 C 10.9 18 11.767 17.854 12.6 17.563 C 13.433 17.271 14.2 16.85 14.9 16.3 L 3.7 5.1 C 3.15 5.8 2.729 6.567 2.438 7.4 C 2.146 8.233 2 9.1 2 10 C 2 12.233 2.775 14.125 4.325 15.675 C 5.875 17.225 7.767 18 10 18 Z M 16.3 14.9 C 16.85 14.2 17.271 13.433 17.563 12.6 C 17.854 11.767 18 10.9 18 10 C 18 7.767 17.225 5.875 15.675 4.325 C 14.125 2.775 12.233 2 10 2 C 9.1 2 8.233 2.146 7.4 2.438 C 6.567 2.729 5.8 3.15 5.1 3.7 L 16.3 14.9 Z" fill="currentColor" fill-rule="nonzero"></path>
</svg>