<svg xmlns="http://www.w3.org/2000/svg" width="18" height="20" viewBox="0 0 18 20" fill="none">
  <path d="M 1 20 C 0.717 20 0.479 19.904 0.287 19.712 C 0.096 19.521 0 19.283 0 19 L 0 15 C 0 14.45 0.196 13.979 0.588 13.588 C 0.979 13.196 1.45 13 2 13 L 16 13 C 16.55 13 17.021 13.196 17.413 13.588 C 17.804 13.979 18 14.45 18 15 L 18 19 C 18 19.283 17.904 19.521 17.712 19.712 C 17.521 19.904 17.283 20 17 20 L 1 20 Z M 2 11 L 2 8 C 2 7.45 2.196 6.979 2.588 6.588 C 2.979 6.196 3.45 6 4 6 L 8 6 L 8 4.55 C 7.7 4.35 7.458 4.108 7.275 3.825 C 7.092 3.542 7 3.2 7 2.8 C 7 2.55 7.05 2.304 7.15 2.063 C 7.25 1.821 7.4 1.6 7.6 1.4 L 9 0 L 10.4 1.4 C 10.6 1.6 10.75 1.821 10.85 2.063 C 10.95 2.304 11 2.55 11 2.8 C 11 3.2 10.908 3.542 10.725 3.825 C 10.542 4.108 10.3 4.35 10 4.55 L 10 6 L 14 6 C 14.55 6 15.021 6.196 15.413 6.588 C 15.804 6.979 16 7.45 16 8 L 16 11 L 2 11 Z" fill="currentColor" fill-rule="nonzero"></path>
</svg>