<svg xmlns="http://www.w3.org/2000/svg" width="19" height="20" viewBox="0 0 19 20" fill="none">
  <path d="M 3.5 9 L 9 0 L 14.5 9 L 3.5 9 Z M 14.5 20 C 13.25 20 12.188 19.563 11.313 18.688 C 10.438 17.813 10 16.75 10 15.5 C 10 14.25 10.438 13.188 11.313 12.313 C 12.188 11.438 13.25 11 14.5 11 C 15.75 11 16.813 11.438 17.688 12.313 C 18.563 13.188 19 14.25 19 15.5 C 19 16.75 18.563 17.813 17.688 18.688 C 16.813 19.563 15.75 20 14.5 20 Z M 0 19.5 L 0 11.5 L 8 11.5 L 8 19.5 L 0 19.5 Z M 14.5 18 C 15.2 18 15.792 17.758 16.275 17.275 C 16.758 16.792 17 16.2 17 15.5 C 17 14.8 16.758 14.208 16.275 13.725 C 15.792 13.242 15.2 13 14.5 13 C 13.8 13 13.208 13.242 12.725 13.725 C 12.242 14.208 12 14.8 12 15.5 C 12 16.2 12.242 16.792 12.725 17.275 C 13.208 17.758 13.8 18 14.5 18 Z M 2 17.5 L 6 17.5 L 6 13.5 L 2 13.5 L 2 17.5 Z M 7.05 7 L 10.95 7 L 9 3.85 L 7.05 7 Z" fill="currentColor" fill-rule="nonzero"></path>
</svg>