<svg xmlns="http://www.w3.org/2000/svg" width="12.875" height="12.875" viewBox="0 0 12.875 12.875" fill="none">
  <path d="M 8.866 6.419 L 12.518 10.108 C 12.993 10.546 12.993 11.277 12.518 11.715 L 11.715 12.518 C 11.277 12.993 10.546 12.993 10.108 12.518 L 6.456 8.866 L 2.767 12.518 C 2.328 12.993 1.598 12.993 1.16 12.518 L 0.356 11.715 C -0.119 11.277 -0.119 10.546 0.356 10.108 L 4.008 6.419 L 0.356 2.767 C -0.119 2.328 -0.119 1.598 0.356 1.16 L 1.16 0.356 C 1.598 -0.119 2.328 -0.119 2.767 0.356 L 6.456 4.008 L 10.108 0.356 C 10.546 -0.119 11.277 -0.119 11.715 0.356 L 12.518 1.16 C 12.993 1.598 12.993 2.328 12.518 2.767 L 8.866 6.419 Z" fill="currentColor" fill-rule="nonzero"></path>
</svg>