<svg xmlns="http://www.w3.org/2000/svg" width="21" height="18" viewBox="0 0 21 18" fill="none">
  <path d="M 17.675 15.375 L 18.375 14.675 L 16.5 12.8 L 16.5 10 L 15.5 10 L 15.5 13.2 L 17.675 15.375 Z M 16.025 18 C 14.625 18 13.438 17.517 12.463 16.55 C 11.488 15.583 11 14.4 11 13 C 11 11.6 11.488 10.417 12.463 9.45 C 13.438 8.483 14.625 8 16.025 8 C 17.408 8 18.583 8.488 19.55 9.463 C 20.517 10.438 21 11.617 21 13 C 21 14.383 20.517 15.563 19.55 16.538 C 18.583 17.513 17.408 18 16.025 18 Z M 2 16 C 1.45 16 0.979 15.804 0.588 15.413 C 0.196 15.021 0 14.55 0 14 L 0 2 C 0 1.45 0.196 0.979 0.588 0.588 C 0.979 0.196 1.45 0 2 0 L 18 0 C 18.55 0 19.021 0.196 19.413 0.588 C 19.804 0.979 20 1.45 20 2 L 20 7.325 C 19.7 7.108 19.383 6.917 19.05 6.75 C 18.717 6.583 18.367 6.442 18 6.325 L 18 4 L 2 4 L 2 8 L 11 8 C 10.35 8.633 9.838 9.379 9.463 10.238 C 9.088 11.096 8.9 12.017 8.9 13 C 8.9 13.533 8.958 14.054 9.075 14.563 C 9.192 15.071 9.358 15.55 9.575 16 L 2 16 Z" fill="currentColor" fill-rule="nonzero"></path>
</svg>