<svg xmlns="http://www.w3.org/2000/svg" width="22" height="22" viewBox="0 0 22 22" fill="none">
  <path d="M 11 22 C 9.133 22 7.417 21.575 5.85 20.725 C 4.283 19.875 3 18.742 2 17.325 L 2 20 L 0 20 L 0 14 L 6 14 L 6 16 L 3.525 16 C 4.325 17.2 5.379 18.167 6.688 18.9 C 7.996 19.633 9.433 20 11 20 C 12.25 20 13.421 19.763 14.512 19.288 C 15.604 18.813 16.554 18.171 17.363 17.363 C 18.171 16.554 18.813 15.604 19.288 14.512 C 19.763 13.421 20 12.25 20 11 L 22 11 C 22 12.517 21.713 13.942 21.138 15.275 C 20.563 16.608 19.775 17.775 18.775 18.775 C 17.775 19.775 16.608 20.563 15.275 21.138 C 13.942 21.713 12.517 22 11 22 Z M 10.1 18 L 10.1 16.7 C 9.317 16.517 8.679 16.179 8.188 15.688 C 7.696 15.196 7.333 14.55 7.1 13.75 L 8.75 13.1 C 8.95 13.783 9.262 14.296 9.688 14.637 C 10.113 14.979 10.6 15.15 11.15 15.15 C 11.7 15.15 12.171 15.021 12.563 14.762 C 12.954 14.504 13.15 14.1 13.15 13.55 C 13.15 13.067 12.946 12.675 12.538 12.375 C 12.129 12.075 11.4 11.733 10.35 11.35 C 9.367 11 8.646 10.583 8.188 10.1 C 7.729 9.617 7.5 8.983 7.5 8.2 C 7.5 7.517 7.738 6.896 8.213 6.338 C 8.688 5.779 9.333 5.417 10.15 5.25 L 10.15 4 L 11.9 4 L 11.9 5.25 C 12.5 5.3 13.046 5.542 13.538 5.975 C 14.029 6.408 14.367 6.917 14.55 7.5 L 12.95 8.15 C 12.817 7.767 12.6 7.446 12.3 7.188 C 12 6.929 11.583 6.8 11.05 6.8 C 10.467 6.8 10.021 6.925 9.713 7.175 C 9.404 7.425 9.25 7.767 9.25 8.2 C 9.25 8.633 9.442 8.975 9.825 9.225 C 10.208 9.475 10.9 9.767 11.9 10.1 C 13.1 10.533 13.9 11.042 14.3 11.625 C 14.7 12.208 14.9 12.85 14.9 13.55 C 14.9 14.033 14.817 14.458 14.65 14.825 C 14.483 15.192 14.262 15.504 13.988 15.762 C 13.713 16.021 13.392 16.229 13.025 16.388 C 12.658 16.546 12.267 16.667 11.85 16.75 L 11.85 18 L 10.1 18 Z M 0 11 C 0 9.483 0.288 8.058 0.863 6.725 C 1.438 5.392 2.225 4.225 3.225 3.225 C 4.225 2.225 5.392 1.438 6.725 0.863 C 8.058 0.288 9.483 0 11 0 C 12.867 0 14.583 0.425 16.15 1.275 C 17.717 2.125 19 3.258 20 4.675 L 20 2 L 22 2 L 22 8 L 16 8 L 16 6 L 18.475 6 C 17.675 4.8 16.621 3.833 15.313 3.1 C 14.004 2.367 12.567 2 11 2 C 9.75 2 8.579 2.238 7.488 2.713 C 6.396 3.188 5.446 3.829 4.638 4.638 C 3.829 5.446 3.188 6.396 2.713 7.488 C 2.238 8.579 2 9.75 2 11 L 0 11 Z" fill="currentColor" fill-rule="nonzero"></path>
</svg>