<svg xmlns="http://www.w3.org/2000/svg" width="23.962" height="18.637" viewBox="0 0 23.962 18.637" fill="none">
  <path d="M 11.981 0 C 18.596 0 23.962 5.367 23.962 11.981 C 23.962 14.186 23.338 16.266 22.298 18.013 C 22.09 18.429 21.633 18.637 21.175 18.637 L 2.746 18.637 C 2.288 18.637 1.83 18.429 1.622 18.013 C 0.582 16.266 0 14.186 0 11.981 C 0 5.367 5.325 0 11.981 0 Z M 11.981 2.662 C 11.232 2.662 10.65 3.287 10.65 3.994 C 10.65 4.743 11.232 5.325 11.981 5.325 C 12.231 5.325 12.48 5.242 12.688 5.075 L 13.063 3.952 C 13.104 3.827 13.188 3.744 13.229 3.661 C 13.063 3.12 12.564 2.662 11.981 2.662 Z M 3.994 14.644 C 4.701 14.644 5.325 14.061 5.325 13.313 C 5.325 12.605 4.701 11.981 3.994 11.981 C 3.245 11.981 2.662 12.605 2.662 13.313 C 2.662 14.061 3.245 14.644 3.994 14.644 Z M 5.991 7.987 C 6.698 7.987 7.322 7.405 7.322 6.656 C 7.322 5.949 6.698 5.325 5.991 5.325 C 5.242 5.325 4.659 5.949 4.659 6.656 C 4.659 7.405 5.242 7.987 5.991 7.987 Z M 16.225 4.992 C 16.391 4.493 16.141 3.911 15.601 3.744 C 15.06 3.536 14.519 3.827 14.353 4.368 L 11.773 12.023 C 10.4 12.106 9.319 13.271 9.319 14.644 C 9.319 15.143 9.444 15.601 9.652 15.975 L 14.269 15.975 C 14.477 15.601 14.644 15.143 14.644 14.644 C 14.644 13.853 14.269 13.146 13.687 12.647 L 16.225 4.992 Z M 16.849 7.363 C 17.098 7.738 17.473 7.987 17.972 8.029 C 18.679 8.029 19.303 7.405 19.303 6.698 C 19.303 5.949 18.679 5.367 17.972 5.367 C 17.805 5.367 17.639 5.367 17.473 5.45 L 16.849 7.363 Z M 19.969 14.644 C 20.676 14.644 21.3 14.061 21.3 13.313 C 21.3 12.605 20.676 11.981 19.969 11.981 C 19.22 11.981 18.637 12.605 18.637 13.313 C 18.637 14.061 19.22 14.644 19.969 14.644 Z" fill="currentColor" fill-rule="nonzero"></path>
</svg>