<svg xmlns="http://www.w3.org/2000/svg" width="16" height="16" viewBox="0 0 16 16" fill="none">
  <path d="M 4 8.8 L 12 8.8 L 12 7.2 L 4 7.2 L 4 8.8 Z M 8 16 C 6.893 16 5.853 15.79 4.88 15.37 C 3.907 14.95 3.06 14.38 2.34 13.66 C 1.62 12.94 1.05 12.093 0.63 11.12 C 0.21 10.147 0 9.107 0 8 C 0 6.893 0.21 5.853 0.63 4.88 C 1.05 3.907 1.62 3.06 2.34 2.34 C 3.06 1.62 3.907 1.05 4.88 0.63 C 5.853 0.21 6.893 0 8 0 C 9.107 0 10.147 0.21 11.12 0.63 C 12.093 1.05 12.94 1.62 13.66 2.34 C 14.38 3.06 14.95 3.907 15.37 4.88 C 15.79 5.853 16 6.893 16 8 C 16 9.107 15.79 10.147 15.37 11.12 C 14.95 12.093 14.38 12.94 13.66 13.66 C 12.94 14.38 12.093 14.95 11.12 15.37 C 10.147 15.79 9.107 16 8 16 Z M 8 14.4 C 9.787 14.4 11.3 13.78 12.54 12.54 C 13.78 11.3 14.4 9.787 14.4 8 C 14.4 6.213 13.78 4.7 12.54 3.46 C 11.3 2.22 9.787 1.6 8 1.6 C 6.213 1.6 4.7 2.22 3.46 3.46 C 2.22 4.7 1.6 6.213 1.6 8 C 1.6 9.787 2.22 11.3 3.46 12.54 C 4.7 13.78 6.213 14.4 8 14.4 Z" fill="currentColor" fill-rule="nonzero"></path>
</svg>