<svg xmlns="http://www.w3.org/2000/svg" width="16" height="16" viewBox="0 0 16 16" fill="none">
  <path d="M 6.75 0 L 9.25 0 C 9.656 0 10 0.344 10 0.75 L 10 6 L 12.719 6 C 13.281 6 13.563 6.688 13.156 7.094 L 8.406 11.844 C 8.188 12.063 7.781 12.063 7.563 11.844 L 2.813 7.094 C 2.406 6.688 2.688 6 3.25 6 L 6 6 L 6 0.75 C 6 0.344 6.313 0 6.75 0 Z M 16 11.75 L 16 15.25 C 16 15.688 15.656 16 15.25 16 L 0.75 16 C 0.313 16 0 15.688 0 15.25 L 0 11.75 C 0 11.344 0.313 11 0.75 11 L 5.313 11 L 6.844 12.531 C 7.469 13.188 8.5 13.188 9.125 12.531 L 10.656 11 L 15.25 11 C 15.656 11 16 11.344 16 11.75 Z M 12.125 14.5 C 12.125 14.156 11.844 13.875 11.5 13.875 C 11.156 13.875 10.875 14.156 10.875 14.5 C 10.875 14.844 11.156 15.125 11.5 15.125 C 11.844 15.125 12.125 14.844 12.125 14.5 Z M 14.125 14.5 C 14.125 14.156 13.844 13.875 13.5 13.875 C 13.156 13.875 12.875 14.156 12.875 14.5 C 12.875 14.844 13.156 15.125 13.5 15.125 C 13.844 15.125 14.125 14.844 14.125 14.5 Z" fill="currentColor" fill-rule="nonzero"></path>
</svg>