<svg xmlns="http://www.w3.org/2000/svg" width="20" height="18" viewBox="0 0 20 18" fill="none">
  <path d="M 5 11 C 5.283 11 5.521 10.904 5.713 10.713 C 5.904 10.521 6 10.283 6 10 C 6 9.717 5.904 9.479 5.713 9.288 C 5.521 9.096 5.283 9 5 9 C 4.717 9 4.479 9.096 4.287 9.288 C 4.096 9.479 4 9.717 4 10 C 4 10.283 4.096 10.521 4.287 10.713 C 4.479 10.904 4.717 11 5 11 Z M 5 7 C 5.283 7 5.521 6.904 5.713 6.713 C 5.904 6.521 6 6.283 6 6 C 6 5.717 5.904 5.479 5.713 5.287 C 5.521 5.096 5.283 5 5 5 C 4.717 5 4.479 5.096 4.287 5.287 C 4.096 5.479 4 5.717 4 6 C 4 6.283 4.096 6.521 4.287 6.713 C 4.479 6.904 4.717 7 5 7 Z M 7 11 L 16 11 L 16 9 L 7 9 L 7 11 Z M 7 7 L 16 7 L 16 5 L 7 5 L 7 7 Z M 6 18 L 6 16 L 2 16 C 1.45 16 0.979 15.804 0.588 15.413 C 0.196 15.021 0 14.55 0 14 L 0 2 C 0 1.45 0.196 0.979 0.588 0.588 C 0.979 0.196 1.45 0 2 0 L 18 0 C 18.55 0 19.021 0.196 19.413 0.588 C 19.804 0.979 20 1.45 20 2 L 20 14 C 20 14.55 19.804 15.021 19.413 15.413 C 19.021 15.804 18.55 16 18 16 L 14 16 L 14 18 L 6 18 Z M 2 14 L 18 14 L 18 2 L 2 2 L 2 14 Z" fill="currentColor" fill-rule="nonzero"></path>
</svg>