<svg xmlns="http://www.w3.org/2000/svg" width="18" height="18" viewBox="0 0 18 18" fill="none">
  <path d="M 2 16 L 3.425 16 L 13.2 6.225 L 11.775 4.8 L 2 14.575 L 2 16 Z M 0 18 L 0 13.75 L 13.2 0.575 C 13.4 0.392 13.621 0.25 13.863 0.15 C 14.104 0.05 14.358 0 14.625 0 C 14.892 0 15.15 0.05 15.4 0.15 C 15.65 0.25 15.867 0.4 16.05 0.6 L 17.425 2 C 17.625 2.183 17.771 2.4 17.863 2.65 C 17.954 2.9 18 3.15 18 3.4 C 18 3.667 17.954 3.921 17.863 4.162 C 17.771 4.404 17.625 4.625 17.425 4.825 L 4.25 18 L 0 18 Z M 12.475 5.525 L 11.775 4.8 L 13.2 6.225 L 12.475 5.525 Z" fill="currentColor" fill-rule="nonzero"></path>
</svg>