<svg xmlns="http://www.w3.org/2000/svg" width="20" height="18" viewBox="0 0 20 18" fill="none">
  <path d="M 2 18 C 1.45 18 0.979 17.804 0.587 17.413 C 0.196 17.021 0 16.55 0 16 L 0 2 C 0 1.45 0.196 0.979 0.587 0.588 C 0.979 0.196 1.45 0 2 0 L 18 0 C 18.55 0 19.021 0.196 19.412 0.588 C 19.804 0.979 20 1.45 20 2 L 20 16 C 20 16.55 19.804 17.021 19.412 17.413 C 19.021 17.804 18.55 18 18 18 L 2 18 Z M 3 14 L 8 14 L 8 12 L 3 12 L 3 14 Z M 12.55 12 L 17.5 7.05 L 16.075 5.625 L 12.55 9.175 L 11.125 7.75 L 9.725 9.175 L 12.55 12 Z M 3 10 L 8 10 L 8 8 L 3 8 L 3 10 Z M 3 6 L 8 6 L 8 4 L 3 4 L 3 6 Z" fill="currentColor" fill-rule="nonzero"></path>
</svg>