<svg xmlns="http://www.w3.org/2000/svg" width="11" height="17" viewBox="0 0 11 17" fill="none">
  <path d="M 4.5 17 L 4.5 14.882 L 2.5 14.882 L 2.5 12.765 L 4.5 12.765 L 4.5 10.541 C 3.183 10.294 2.104 9.628 1.263 8.543 C 0.421 7.457 0 7.2 0 5.771 C 0 4.165 0.538 2.801 1.613 1.681 C 2.688 0.56 3.983 0 5.5 0 C 7.017 0 8.313 0.56 9.387 1.681 C 10.462 2.801 11 4.165 11 5.771 C 11 7.2 10.579 7.457 9.738 8.543 C 8.896 9.628 7.817 10.294 6.5 10.541 L 6.5 12.765 L 8.5 12.765 L 8.5 14.882 L 6.5 14.882 L 6.5 17 L 4.5 17 Z M 5.5 9.529 C 6.467 9.529 7.292 9.168 7.975 8.444 C 8.658 7.721 9 6.847 9 5.824 C 9 4.8 8.658 3.926 7.975 3.203 C 7.292 2.479 6.467 2.118 5.5 2.118 C 4.533 2.118 3.708 2.479 3.025 3.203 C 2.342 3.926 2 4.8 2 5.824 C 2 6.847 2.342 7.721 3.025 8.444 C 3.708 9.168 4.533 9.529 5.5 9.529 Z" fill="currentColor" fill-rule="nonzero"></path>
</svg>