<svg xmlns="http://www.w3.org/2000/svg" width="18" height="16" viewBox="0 0 18 16" fill="none">
  <path d="M 6 15 L 6 13 L 18 13 L 18 15 L 6 15 Z M 6 9 L 6 7 L 18 7 L 18 9 L 6 9 Z M 6 3 L 6 1 L 18 1 L 18 3 L 6 3 Z M 2 16 C 1.45 16 0.979 15.804 0.588 15.413 C 0.196 15.021 0 14.55 0 14 C 0 13.45 0.196 12.979 0.588 12.588 C 0.979 12.196 1.45 12 2 12 C 2.55 12 3.021 12.196 3.413 12.588 C 3.804 12.979 4 13.45 4 14 C 4 14.55 3.804 15.021 3.413 15.413 C 3.021 15.804 2.55 16 2 16 Z M 2 10 C 1.45 10 0.979 9.804 0.588 9.413 C 0.196 9.021 0 8.55 0 8 C 0 7.45 0.196 6.979 0.588 6.588 C 0.979 6.196 1.45 6 2 6 C 2.55 6 3.021 6.196 3.413 6.588 C 3.804 6.979 4 7.45 4 8 C 4 8.55 3.804 9.021 3.413 9.413 C 3.021 9.804 2.55 10 2 10 Z M 2 4 C 1.45 4 0.979 3.804 0.588 3.413 C 0.196 3.021 0 2.55 0 2 C 0 1.45 0.196 0.979 0.588 0.588 C 0.979 0.196 1.45 0 2 0 C 2.55 0 3.021 0.196 3.413 0.588 C 3.804 0.979 4 1.45 4 2 C 4 2.55 3.804 3.021 3.413 3.413 C 3.021 3.804 2.55 4 2 4 Z" fill="currentColor" fill-rule="nonzero"></path>
</svg>