<svg xmlns="http://www.w3.org/2000/svg" width="18" height="20" viewBox="0 0 18 20" fill="none">
  <path d="M 0 20 L 0 18.5 L 2.5 18.5 L 2.5 17.75 L 1 17.75 L 1 16.25 L 2.5 16.25 L 2.5 15.5 L 0 15.5 L 0 14 L 3 14 C 3.283 14 3.521 14.096 3.713 14.288 C 3.904 14.479 4 14.717 4 15 L 4 16 C 4 16.283 3.904 16.521 3.713 16.712 C 3.521 16.904 3.283 17 3 17 C 3.283 17 3.521 17.096 3.713 17.288 C 3.904 17.479 4 17.717 4 18 L 4 19 C 4 19.283 3.904 19.521 3.713 19.712 C 3.521 19.904 3.283 20 3 20 L 0 20 Z M 0 13 L 0 10.25 C 0 9.967 0.096 9.729 0.287 9.538 C 0.479 9.346 0.717 9.25 1 9.25 L 2.5 9.25 L 2.5 8.5 L 0 8.5 L 0 7 L 3 7 C 3.283 7 3.521 7.096 3.713 7.287 C 3.904 7.479 4 7.717 4 8 L 4 9.75 C 4 10.033 3.904 10.271 3.713 10.463 C 3.521 10.654 3.283 10.75 3 10.75 L 1.5 10.75 L 1.5 11.5 L 4 11.5 L 4 13 L 0 13 Z M 1.5 6 L 1.5 1.5 L 0 1.5 L 0 0 L 3 0 L 3 6 L 1.5 6 Z M 6 17 L 6 15 L 18 15 L 18 17 L 6 17 Z M 6 11 L 6 9 L 18 9 L 18 11 L 6 11 Z M 6 5 L 6 3 L 18 3 L 18 5 L 6 5 Z" fill="currentColor" fill-rule="nonzero"></path>
</svg>