<svg xmlns="http://www.w3.org/2000/svg" width="10.400" height="14" viewBox="0 0 10.400 14" fill="none">
  <path d="M 0 14 L 0 0 L 5.525 0 C 6.608 0 7.608 0.333 8.525 1 C 9.442 1.667 9.9 2.592 9.9 3.775 C 9.9 4.625 9.708 5.279 9.325 5.738 C 8.942 6.196 8.583 6.525 8.25 6.725 C 8.667 6.908 9.129 7.25 9.638 7.75 C 10.146 8.25 10.4 9 10.4 10 C 10.4 11.483 9.858 12.521 8.775 13.113 C 7.692 13.704 6.675 14 5.725 14 L 0 14 Z M 3.025 11.2 L 5.625 11.2 C 6.425 11.2 6.913 10.996 7.088 10.588 C 7.263 10.179 7.35 9.883 7.35 9.7 C 7.35 9.517 7.263 9.221 7.088 8.813 C 6.913 8.404 6.4 8.2 5.55 8.2 L 3.025 8.2 L 3.025 11.2 Z M 3.025 5.5 L 5.35 5.5 C 5.9 5.5 6.3 5.358 6.55 5.075 C 6.8 4.792 6.925 4.475 6.925 4.125 C 6.925 3.725 6.783 3.4 6.5 3.15 C 6.217 2.9 5.85 2.775 5.4 2.775 L 3.025 2.775 L 3.025 5.5 Z" fill="currentColor" fill-rule="nonzero"></path>
</svg>