<svg xmlns="http://www.w3.org/2000/svg" width="14" height="18" viewBox="0 0 14 18" fill="none">
  <path d="M 0 18 L 0 16 L 14 16 L 14 18 L 0 18 Z M 7 14 C 5.317 14 4.008 13.475 3.075 12.425 C 2.142 11.375 1.675 9.983 1.675 8.25 L 1.675 0 L 4.25 0 L 4.25 8.4 C 4.25 9.333 4.483 10.092 4.95 10.675 C 5.417 11.258 6.1 11.55 7 11.55 C 7.9 11.55 8.583 11.258 9.05 10.675 C 9.517 10.092 9.75 9.333 9.75 8.4 L 9.75 0 L 12.325 0 L 12.325 8.25 C 12.325 9.983 11.858 11.375 10.925 12.425 C 9.992 13.475 8.683 14 7 14 Z" fill="currentColor" fill-rule="nonzero"></path>
</svg>