<svg xmlns="http://www.w3.org/2000/svg" width="14.555" height="11.697" viewBox="0 0 14.555 11.697" fill="none">
  <path d="M 7.296 6.456 L 2.328 11.423 C 1.963 11.788 1.415 11.788 1.087 11.423 L 0.247 10.619 C -0.082 10.254 -0.082 9.706 0.247 9.377 L 3.789 5.871 L 0.247 2.328 C -0.082 2 -0.082 1.452 0.247 1.087 L 1.087 0.247 C 1.415 -0.082 1.963 -0.082 2.328 0.247 L 7.296 5.214 C 7.624 5.579 7.624 6.127 7.296 6.456 Z M 14.308 5.214 C 14.637 5.579 14.637 6.127 14.308 6.456 L 9.341 11.423 C 9.012 11.788 8.428 11.788 8.099 11.423 L 7.259 10.619 C 6.93 10.254 6.93 9.706 7.259 9.377 L 10.802 5.835 L 7.259 2.328 C 6.93 2 6.93 1.415 7.259 1.087 L 8.099 0.247 C 8.428 -0.082 8.976 -0.082 9.341 0.247 L 14.308 5.214 Z" fill="currentColor" fill-rule="nonzero"></path>
</svg>