<svg xmlns="http://www.w3.org/2000/svg" width="20" height="20" viewBox="0 0 20 20" fill="none">
  <path d="M 10 20 C 8.617 20 7.317 19.737 6.1 19.212 C 4.883 18.688 3.825 17.975 2.925 17.075 C 2.025 16.175 1.313 15.117 0.788 13.9 C 0.262 12.683 0 11.383 0 10 C 0 8.617 0.262 7.317 0.788 6.1 C 1.313 4.883 2.025 3.825 2.925 2.925 C 3.825 2.025 4.883 1.313 6.1 0.788 C 7.317 0.262 8.617 0 10 0 C 11.383 0 12.683 0.262 13.9 0.788 C 15.117 1.313 16.175 2.025 17.075 2.925 C 17.975 3.825 18.688 4.883 19.212 6.1 C 19.737 7.317 20 8.617 20 10 C 20 11.383 19.737 12.683 19.212 13.9 C 18.688 15.117 17.975 16.175 17.075 17.075 C 16.175 17.975 15.117 18.688 13.9 19.212 C 12.683 19.737 11.383 20 10 20 Z M 10 18 C 12.233 18 14.125 17.225 15.675 15.675 C 17.225 14.125 18 12.233 18 10 C 18 9.883 17.996 9.762 17.988 9.637 C 17.979 9.512 17.975 9.408 17.975 9.325 C 17.892 9.808 17.667 10.208 17.3 10.525 C 16.933 10.842 16.5 11 16 11 L 14 11 C 13.45 11 12.979 10.804 12.588 10.413 C 12.196 10.021 12 9.55 12 9 L 12 8 L 8 8 L 8 6 C 8 5.45 8.196 4.979 8.588 4.588 C 8.979 4.196 9.45 4 10 4 L 11 4 C 11 3.617 11.104 3.279 11.313 2.987 C 11.521 2.696 11.775 2.458 12.075 2.275 C 11.742 2.192 11.404 2.125 11.063 2.075 C 10.721 2.025 10.367 2 10 2 C 7.767 2 5.875 2.775 4.325 4.325 C 2.775 5.875 2 7.767 2 10 L 7 10 C 8.1 10 9.042 10.392 9.825 11.175 C 10.608 11.958 11 12.9 11 14 L 11 15 L 8 15 L 8 17.75 C 8.333 17.833 8.663 17.896 8.988 17.938 C 9.313 17.979 9.65 18 10 18 Z" fill="currentColor" fill-rule="nonzero"></path>
</svg>