<svg xmlns="http://www.w3.org/2000/svg" width="16" height="20" viewBox="0 0 16 20" fill="none">
  <path d="M 8 14 C 8.283 14 8.521 13.904 8.713 13.713 C 8.904 13.521 9 13.283 9 13 C 9 12.717 8.904 12.479 8.713 12.288 C 8.521 12.096 8.283 12 8 12 C 7.717 12 7.479 12.096 7.287 12.288 C 7.096 12.479 7 12.717 7 13 C 7 13.283 7.096 13.521 7.287 13.713 C 7.479 13.904 7.717 14 8 14 Z M 7 10 L 9 10 L 9 5 L 7 5 L 7 10 Z M 8 20 C 5.683 19.417 3.771 18.088 2.263 16.013 C 0.754 13.938 0 11.633 0 9.1 L 0 3 L 8 0 L 16 3 L 16 9.1 C 16 11.633 15.246 13.938 13.738 16.013 C 12.229 18.088 10.317 19.417 8 20 Z" fill="currentColor" fill-rule="nonzero"></path>
</svg>