<svg xmlns="http://www.w3.org/2000/svg" width="18" height="18" viewBox="0 0 18 18" fill="none">
  <path d="M 9 18 C 6.7 18 4.696 17.238 2.987 15.713 C 1.279 14.188 0.3 12.283 0.05 10 L 2.1 10 C 2.333 11.733 3.104 13.167 4.412 14.3 C 5.721 15.433 7.25 16 9 16 C 10.95 16 12.604 15.321 13.963 13.963 C 15.321 12.604 16 10.95 16 9 C 16 7.05 15.321 5.396 13.963 4.037 C 12.604 2.679 10.95 2 9 2 C 7.85 2 6.775 2.267 5.775 2.8 C 4.775 3.333 3.933 4.067 3.25 5 L 6 5 L 6 7 L 0 7 L 0 1 L 2 1 L 2 3.35 C 2.85 2.283 3.888 1.458 5.113 0.875 C 6.338 0.292 7.633 0 9 0 C 10.25 0 11.421 0.238 12.512 0.713 C 13.604 1.188 14.554 1.829 15.363 2.638 C 16.171 3.446 16.813 4.396 17.288 5.488 C 17.763 6.579 18 7.75 18 9 C 18 10.25 17.763 11.421 17.288 12.512 C 16.813 13.604 16.171 14.554 15.363 15.363 C 14.554 16.171 13.604 16.813 12.512 17.288 C 11.421 17.763 10.25 18 9 18 Z M 11.8 13.2 L 8 9.4 L 8 4 L 10 4 L 10 8.6 L 13.2 11.8 L 11.8 13.2 Z" fill="currentColor" fill-rule="nonzero"></path>
</svg>