<svg xmlns="http://www.w3.org/2000/svg" width="16.228" height="12.572" viewBox="0 0 16.228 12.572" fill="none">
  <path d="M 7.903 3.262 C 7.959 3.206 8.044 3.178 8.128 3.178 C 8.184 3.178 8.269 3.206 8.325 3.262 L 13.528 7.509 L 13.528 12.122 C 13.528 12.375 13.303 12.572 13.078 12.572 L 9.9 12.572 C 9.675 12.572 9.45 12.375 9.45 12.122 L 9.45 9.422 C 9.45 9.197 9.253 8.972 9 8.972 L 7.2 8.972 C 6.975 8.972 6.75 9.197 6.75 9.422 L 6.75 12.122 C 6.75 12.375 6.553 12.572 6.328 12.572 L 3.178 12.572 C 2.925 12.572 2.728 12.375 2.728 12.122 L 2.728 7.537 L 7.903 3.262 Z M 16.087 6.159 C 16.172 6.216 16.228 6.328 16.228 6.412 C 16.228 6.497 16.2 6.581 16.144 6.637 L 15.412 7.509 C 15.356 7.594 15.272 7.622 15.159 7.622 C 15.075 7.622 14.991 7.594 14.934 7.537 L 8.325 2.109 C 8.269 2.053 8.184 2.025 8.128 2.025 C 8.044 2.025 7.959 2.053 7.903 2.109 L 1.294 7.537 C 1.237 7.594 1.153 7.622 1.069 7.622 C 0.956 7.622 0.872 7.594 0.816 7.509 L 0.084 6.637 C 0.056 6.581 0 6.497 0 6.412 C 0 6.328 0.056 6.216 0.141 6.159 L 7.256 0.281 C 7.481 0.113 7.791 0 8.128 0 C 8.438 0 8.747 0.113 8.972 0.281 L 11.503 2.362 L 11.503 0.337 C 11.503 0.141 11.644 0 11.841 0 L 13.416 0 C 13.584 0 13.753 0.141 13.753 0.337 L 13.753 4.219 L 16.087 6.159 Z" fill="currentColor" fill-rule="nonzero"></path>
</svg>