<svg xmlns="http://www.w3.org/2000/svg" width="20" height="16" viewBox="0 0 20 16" fill="none">
  <path d="M 12 9 L 17 9 L 17 7 L 12 7 L 12 9 Z M 12 6 L 17 6 L 17 4 L 12 4 L 12 6 Z M 3 12 L 11 12 L 11 11.45 C 11 10.7 10.633 10.104 9.9 9.663 C 9.167 9.221 8.2 9 7 9 C 5.8 9 4.833 9.221 4.1 9.663 C 3.367 10.104 3 10.7 3 11.45 L 3 12 Z M 7 8 C 7.55 8 8.021 7.804 8.413 7.412 C 8.804 7.021 9 6.55 9 6 C 9 5.45 8.804 4.979 8.413 4.588 C 8.021 4.196 7.55 4 7 4 C 6.45 4 5.979 4.196 5.588 4.588 C 5.196 4.979 5 5.45 5 6 C 5 6.55 5.196 7.021 5.588 7.412 C 5.979 7.804 6.45 8 7 8 Z M 2 16 C 1.45 16 0.979 15.804 0.588 15.413 C 0.196 15.021 0 14.55 0 14 L 0 2 C 0 1.45 0.196 0.979 0.588 0.588 C 0.979 0.196 1.45 0 2 0 L 18 0 C 18.55 0 19.021 0.196 19.413 0.588 C 19.804 0.979 20 1.45 20 2 L 20 14 C 20 14.55 19.804 15.021 19.413 15.413 C 19.021 15.804 18.55 16 18 16 L 2 16 Z M 2 14 L 18 14 L 18 2 L 2 2 L 2 14 Z" fill="currentColor" fill-rule="nonzero"></path>
</svg>