<svg xmlns="http://www.w3.org/2000/svg" width="20" height="20" viewBox="0 0 20 20" fill="none">
  <path d="M 13.25 17 L 14.25 17 L 14.25 13 L 13.25 13 L 13.25 17 Z M 15.75 17 L 16.75 17 L 16.75 13 L 15.75 13 L 15.75 17 Z M 3 6 L 15 6 L 15 4 L 3 4 L 3 6 Z M 15 20 C 13.617 20 12.437 19.512 11.462 18.537 C 10.487 17.562 10 16.383 10 15 C 10 13.617 10.487 12.437 11.462 11.462 C 12.437 10.487 13.617 10 15 10 C 16.383 10 17.562 10.487 18.537 11.462 C 19.512 12.437 20 13.617 20 15 C 20 16.383 19.512 17.562 18.537 18.537 C 17.562 19.512 16.383 20 15 20 Z M 0 19 L 0 2 C 0 1.45 0.196 0.979 0.587 0.587 C 0.979 0.196 1.45 0 2 0 L 16 0 C 16.55 0 17.021 0.196 17.412 0.587 C 17.804 0.979 18 1.45 18 2 L 18 8.675 C 17.533 8.442 17.046 8.271 16.537 8.162 C 16.029 8.054 15.517 8 15 8 L 3 8 L 3 10 L 10.1 10 C 9.817 10.283 9.554 10.592 9.312 10.925 C 9.071 11.258 8.858 11.617 8.675 12 L 3 12 L 3 14 L 8.075 14 C 8.042 14.167 8.021 14.329 8.012 14.487 C 8.004 14.646 8 14.817 8 15 C 8 15.7 8.096 16.371 8.287 17.012 C 8.479 17.654 8.767 18.267 9.15 18.85 L 9 19 L 7.5 17.5 L 6 19 L 4.5 17.5 L 3 19 L 1.5 17.5 L 0 19 Z" fill="currentColor" fill-rule="nonzero"></path>
</svg>