<svg xmlns="http://www.w3.org/2000/svg" width="13.563" height="13.563" viewBox="0 0 13.563 13.563" fill="none">
  <path d="M 6.781 0 C 10.5 0 13.563 3.063 13.563 6.781 C 13.563 10.527 10.5 13.563 6.781 13.563 C 3.035 13.563 0 10.527 0 6.781 C 0 3.063 3.035 0 6.781 0 Z M 6.781 3.008 C 6.125 3.008 5.633 3.527 5.633 4.156 C 5.633 4.813 6.125 5.305 6.781 5.305 C 7.41 5.305 7.93 4.813 7.93 4.156 C 7.93 3.527 7.41 3.008 6.781 3.008 Z M 8.313 9.953 L 8.313 9.297 C 8.313 9.133 8.148 8.969 7.984 8.969 L 7.656 8.969 L 7.656 6.234 C 7.656 6.07 7.492 5.906 7.328 5.906 L 5.578 5.906 C 5.387 5.906 5.25 6.07 5.25 6.234 L 5.25 6.891 C 5.25 7.082 5.387 7.219 5.578 7.219 L 5.906 7.219 L 5.906 8.969 L 5.578 8.969 C 5.387 8.969 5.25 9.133 5.25 9.297 L 5.25 9.953 C 5.25 10.145 5.387 10.281 5.578 10.281 L 7.984 10.281 C 8.148 10.281 8.313 10.145 8.313 9.953 Z" fill="currentColor" fill-rule="nonzero"></path>
</svg>