<svg xmlns="http://www.w3.org/2000/svg" width="20" height="20" viewBox="0 0 20 20" fill="none">
  <path d="M 10 20 C 8.633 20 7.342 19.737 6.125 19.212 C 4.908 18.688 3.846 17.971 2.938 17.063 C 2.029 16.154 1.313 15.092 0.788 13.875 C 0.262 12.658 0 11.367 0 10 C 0 8.617 0.262 7.321 0.788 6.113 C 1.313 4.904 2.029 3.846 2.938 2.938 C 3.846 2.029 4.908 1.313 6.125 0.788 C 7.342 0.262 8.633 0 10 0 C 11.383 0 12.679 0.262 13.887 0.788 C 15.096 1.313 16.154 2.029 17.063 2.938 C 17.971 3.846 18.688 4.904 19.212 6.113 C 19.737 7.321 20 8.617 20 10 C 20 11.367 19.737 12.658 19.212 13.875 C 18.688 15.092 17.971 16.154 17.063 17.063 C 16.154 17.971 15.096 18.688 13.887 19.212 C 12.679 19.737 11.383 20 10 20 Z M 10 17.95 C 10.433 17.35 10.808 16.725 11.125 16.075 C 11.442 15.425 11.7 14.733 11.9 14 L 8.1 14 C 8.3 14.733 8.558 15.425 8.875 16.075 C 9.192 16.725 9.567 17.35 10 17.95 Z M 7.4 17.55 C 7.1 17 6.838 16.429 6.613 15.838 C 6.388 15.246 6.2 14.633 6.05 14 L 3.1 14 C 3.583 14.833 4.188 15.558 4.912 16.175 C 5.637 16.792 6.467 17.25 7.4 17.55 Z M 12.6 17.55 C 13.533 17.25 14.363 16.792 15.088 16.175 C 15.813 15.558 16.417 14.833 16.9 14 L 13.95 14 C 13.8 14.633 13.613 15.246 13.387 15.838 C 13.162 16.429 12.9 17 12.6 17.55 Z M 2.25 12 L 5.65 12 C 5.6 11.667 5.563 11.337 5.537 11.012 C 5.512 10.688 5.5 10.35 5.5 10 C 5.5 9.65 5.512 9.313 5.537 8.988 C 5.563 8.663 5.6 8.333 5.65 8 L 2.25 8 C 2.167 8.333 2.104 8.663 2.063 8.988 C 2.021 9.313 2 9.65 2 10 C 2 10.35 2.021 10.688 2.063 11.012 C 2.104 11.337 2.167 11.667 2.25 12 Z M 7.65 12 L 12.35 12 C 12.4 11.667 12.438 11.337 12.463 11.012 C 12.488 10.688 12.5 10.35 12.5 10 C 12.5 9.65 12.488 9.313 12.463 8.988 C 12.438 8.663 12.4 8.333 12.35 8 L 7.65 8 C 7.6 8.333 7.563 8.663 7.537 8.988 C 7.512 9.313 7.5 9.65 7.5 10 C 7.5 10.35 7.512 10.688 7.537 11.012 C 7.563 11.337 7.6 11.667 7.65 12 Z M 14.35 12 L 17.75 12 C 17.833 11.667 17.896 11.337 17.938 11.012 C 17.979 10.688 18 10.35 18 10 C 18 9.65 17.979 9.313 17.938 8.988 C 17.896 8.663 17.833 8.333 17.75 8 L 14.35 8 C 14.4 8.333 14.438 8.663 14.463 8.988 C 14.488 9.313 14.5 9.65 14.5 10 C 14.5 10.35 14.488 10.688 14.463 11.012 C 14.438 11.337 14.4 11.667 14.35 12 Z M 13.95 6 L 16.9 6 C 16.417 5.167 15.813 4.442 15.088 3.825 C 14.363 3.208 13.533 2.75 12.6 2.45 C 12.9 3 13.162 3.571 13.387 4.162 C 13.613 4.754 13.8 5.367 13.95 6 Z M 8.1 6 L 11.9 6 C 11.7 5.267 11.442 4.575 11.125 3.925 C 10.808 3.275 10.433 2.65 10 2.05 C 9.567 2.65 9.192 3.275 8.875 3.925 C 8.558 4.575 8.3 5.267 8.1 6 Z M 3.1 6 L 6.05 6 C 6.2 5.367 6.388 4.754 6.613 4.162 C 6.838 3.571 7.1 3 7.4 2.45 C 6.467 2.75 5.637 3.208 4.912 3.825 C 4.188 4.442 3.583 5.167 3.1 6 Z" fill="currentColor" fill-rule="nonzero"></path>
</svg>