<svg xmlns="http://www.w3.org/2000/svg" width="20" height="10" viewBox="0 0 20 10" fill="none">
  <path d="M 9 10 L 5 10 C 3.617 10 2.438 9.513 1.462 8.538 C 0.487 7.563 0 6.383 0 5 C 0 3.617 0.487 2.438 1.462 1.462 C 2.438 0.487 3.617 0 5 0 L 9 0 L 9 2 L 5 2 C 4.167 2 3.458 2.292 2.875 2.875 C 2.292 3.458 2 4.167 2 5 C 2 5.833 2.292 6.542 2.875 7.125 C 3.458 7.708 4.167 8 5 8 L 9 8 L 9 10 Z M 6 6 L 6 4 L 14 4 L 14 6 L 6 6 Z M 11 10 L 11 8 L 15 8 C 15.833 8 16.542 7.708 17.125 7.125 C 17.708 6.542 18 5.833 18 5 C 18 4.167 17.708 3.458 17.125 2.875 C 16.542 2.292 15.833 2 15 2 L 11 2 L 11 0 L 15 0 C 16.383 0 17.563 0.487 18.538 1.462 C 19.513 2.438 20 3.617 20 5 C 20 6.383 19.513 7.563 18.538 8.538 C 17.563 9.513 16.383 10 15 10 L 11 10 Z" fill="currentColor" fill-rule="nonzero"></path>
</svg>