<svg xmlns="http://www.w3.org/2000/svg" width="16" height="16" viewBox="0 0 16 16" fill="none">
  <path d="M 16 0 L 16 6 L 14 6 L 14 3.425 L 10.025 7.375 C 10.342 7.842 10.583 8.338 10.75 8.863 C 10.917 9.387 11 9.933 11 10.5 C 11 12.033 10.467 13.333 9.4 14.4 C 8.333 15.467 7.033 16 5.5 16 C 3.967 16 2.667 15.467 1.6 14.4 C 0.533 13.333 0 12.033 0 10.5 C 0 8.967 0.533 7.667 1.6 6.6 C 2.667 5.533 3.967 5 5.5 5 C 6.05 5 6.592 5.079 7.125 5.238 C 7.658 5.396 8.15 5.642 8.6 5.975 L 12.575 2 L 10 2 L 10 0 L 16 0 Z M 5.5 7 C 4.533 7 3.708 7.342 3.025 8.025 C 2.342 8.708 2 9.533 2 10.5 C 2 11.467 2.342 12.292 3.025 12.975 C 3.708 13.658 4.533 14 5.5 14 C 6.467 14 7.292 13.658 7.975 12.975 C 8.658 12.292 9 11.467 9 10.5 C 9 9.533 8.658 8.708 7.975 8.025 C 7.292 7.342 6.467 7 5.5 7 Z" fill="currentColor" fill-rule="nonzero"></path>
</svg>