<svg xmlns="http://www.w3.org/2000/svg" width="16" height="4" viewBox="0 0 16 4" fill="none">
  <path d="M 2 4 C 1.45 4 0.979 3.804 0.588 3.413 C 0.196 3.021 0 2.55 0 2 C 0 1.45 0.196 0.979 0.588 0.588 C 0.979 0.196 1.45 0 2 0 C 2.55 0 3.021 0.196 3.413 0.588 C 3.804 0.979 4 1.45 4 2 C 4 2.55 3.804 3.021 3.413 3.413 C 3.021 3.804 2.55 4 2 4 Z M 8 4 C 7.45 4 6.979 3.804 6.588 3.413 C 6.196 3.021 6 2.55 6 2 C 6 1.45 6.196 0.979 6.588 0.588 C 6.979 0.196 7.45 0 8 0 C 8.55 0 9.021 0.196 9.413 0.588 C 9.804 0.979 10 1.45 10 2 C 10 2.55 9.804 3.021 9.413 3.413 C 9.021 3.804 8.55 4 8 4 Z M 14 4 C 13.45 4 12.979 3.804 12.588 3.413 C 12.196 3.021 12 2.55 12 2 C 12 1.45 12.196 0.979 12.588 0.588 C 12.979 0.196 13.45 0 14 0 C 14.55 0 15.021 0.196 15.413 0.588 C 15.804 0.979 16 1.45 16 2 C 16 2.55 15.804 3.021 15.413 3.413 C 15.021 3.804 14.55 4 14 4 Z" fill="currentColor" fill-rule="nonzero"></path>
</svg>