<svg xmlns="http://www.w3.org/2000/svg" width="16" height="16" viewBox="0 0 16 16" fill="none">
  <path d="M 14 0 C 15.094 0 16 0.906 16 2 L 16 11 C 16 12.125 15.094 13 14 13 L 9.5 13 L 5.594 15.938 C 5.5 16 5.438 16 5.375 16 C 5.156 16 5 15.875 5 15.625 L 5 13 L 2 13 C 0.875 13 0 12.125 0 11 L 0 2 C 0 0.906 0.875 0 2 0 L 14 0 Z M 14.5 11 L 14.5 2 C 14.5 1.75 14.25 1.5 14 1.5 L 2 1.5 C 1.719 1.5 1.5 1.75 1.5 2 L 1.5 11 C 1.5 11.281 1.719 11.5 2 11.5 L 6.5 11.5 L 6.5 13.375 L 8.594 11.813 L 9 11.5 L 14 11.5 C 14.25 11.5 14.5 11.281 14.5 11 Z" fill="currentColor" fill-rule="nonzero"></path>
</svg>