<svg xmlns="http://www.w3.org/2000/svg" width="16" height="20" viewBox="0 0 16 20" fill="none">
  <path d="M 0 17 L 0 15 L 2 15 L 2 8 C 2 6.617 2.417 5.387 3.25 4.313 C 4.083 3.237 5.167 2.533 6.5 2.2 L 6.5 1.5 C 6.5 1.083 6.646 0.729 6.938 0.438 C 7.229 0.146 7.583 0 8 0 C 8.417 0 8.771 0.146 9.063 0.438 C 9.354 0.729 9.5 1.083 9.5 1.5 L 9.5 2.2 C 10.833 2.533 11.917 3.237 12.75 4.313 C 13.583 5.387 14 6.617 14 8 L 14 15 L 16 15 L 16 17 L 0 17 Z M 8 20 C 7.45 20 6.979 19.804 6.588 19.413 C 6.196 19.021 6 18.55 6 18 L 10 18 C 10 18.55 9.804 19.021 9.413 19.413 C 9.021 19.804 8.55 20 8 20 Z" fill="currentColor" fill-rule="nonzero"></path>
</svg>