<svg xmlns="http://www.w3.org/2000/svg" width="20" height="20" viewBox="0 0 20 20" fill="none">
  <path d="M 5 11.5 C 5.417 11.5 5.771 11.354 6.063 11.063 C 6.354 10.771 6.5 10.417 6.5 10 C 6.5 9.583 6.354 9.229 6.063 8.938 C 5.771 8.646 5.417 8.5 5 8.5 C 4.583 8.5 4.229 8.646 3.938 8.938 C 3.646 9.229 3.5 9.583 3.5 10 C 3.5 10.417 3.646 10.771 3.938 11.063 C 4.229 11.354 4.583 11.5 5 11.5 Z M 10 11.5 C 10.417 11.5 10.771 11.354 11.063 11.063 C 11.354 10.771 11.5 10.417 11.5 10 C 11.5 9.583 11.354 9.229 11.063 8.938 C 10.771 8.646 10.417 8.5 10 8.5 C 9.583 8.5 9.229 8.646 8.938 8.938 C 8.646 9.229 8.5 9.583 8.5 10 C 8.5 10.417 8.646 10.771 8.938 11.063 C 9.229 11.354 9.583 11.5 10 11.5 Z M 15 11.5 C 15.417 11.5 15.771 11.354 16.063 11.063 C 16.354 10.771 16.5 10.417 16.5 10 C 16.5 9.583 16.354 9.229 16.063 8.938 C 15.771 8.646 15.417 8.5 15 8.5 C 14.583 8.5 14.229 8.646 13.938 8.938 C 13.646 9.229 13.5 9.583 13.5 10 C 13.5 10.417 13.646 10.771 13.938 11.063 C 14.229 11.354 14.583 11.5 15 11.5 Z M 10 20 C 8.617 20 7.317 19.737 6.1 19.212 C 4.883 18.688 3.825 17.975 2.925 17.075 C 2.025 16.175 1.313 15.117 0.788 13.9 C 0.262 12.683 0 11.383 0 10 C 0 8.617 0.262 7.317 0.788 6.1 C 1.313 4.883 2.025 3.825 2.925 2.925 C 3.825 2.025 4.883 1.313 6.1 0.788 C 7.317 0.262 8.617 0 10 0 C 11.383 0 12.683 0.262 13.9 0.788 C 15.117 1.313 16.175 2.025 17.075 2.925 C 17.975 3.825 18.688 4.883 19.212 6.1 C 19.737 7.317 20 8.617 20 10 C 20 11.383 19.737 12.683 19.212 13.9 C 18.688 15.117 17.975 16.175 17.075 17.075 C 16.175 17.975 15.117 18.688 13.9 19.212 C 12.683 19.737 11.383 20 10 20 Z M 10 18 C 12.233 18 14.125 17.225 15.675 15.675 C 17.225 14.125 18 12.233 18 10 C 18 7.767 17.225 5.875 15.675 4.325 C 14.125 2.775 12.233 2 10 2 C 7.767 2 5.875 2.775 4.325 4.325 C 2.775 5.875 2 7.767 2 10 C 2 12.233 2.775 14.125 4.325 15.675 C 5.875 17.225 7.767 18 10 18 Z" fill="currentColor" fill-rule="nonzero"></path>
</svg>