<svg xmlns="http://www.w3.org/2000/svg" width="16" height="16" viewBox="0 0 16 16" fill="none">
  <path d="M 8 8 C 6.9 8 5.958 7.608 5.175 6.825 C 4.392 6.042 4 5.1 4 4 C 4 2.9 4.392 1.958 5.175 1.175 C 5.958 0.392 6.9 0 8 0 C 9.1 0 10.042 0.392 10.825 1.175 C 11.608 1.958 12 2.9 12 4 C 12 5.1 11.608 6.042 10.825 6.825 C 10.042 7.608 9.1 8 8 8 Z M 0 16 L 0 13.2 C 0 12.633 0.146 12.113 0.438 11.637 C 0.729 11.162 1.117 10.8 1.6 10.55 C 2.633 10.033 3.683 9.646 4.75 9.387 C 5.817 9.129 6.9 9 8 9 C 9.1 9 10.183 9.129 11.25 9.387 C 12.317 9.646 13.367 10.033 14.4 10.55 C 14.883 10.8 15.271 11.162 15.563 11.637 C 15.854 12.113 16 12.633 16 13.2 L 16 16 L 0 16 Z" fill="currentColor" fill-rule="nonzero"></path>
</svg>