<svg xmlns="http://www.w3.org/2000/svg" width="16" height="20" viewBox="0 0 16 20" fill="none">
  <path d="M 8 14 C 6.85 14 5.775 14.175 4.775 14.525 C 3.775 14.875 2.85 15.367 2 16 L 2 18 L 14 18 L 14 16 C 13.15 15.367 12.225 14.875 11.225 14.525 C 10.225 14.175 9.15 14 8 14 Z M 2 20 C 1.45 20 0.979 19.804 0.588 19.413 C 0.196 19.021 0 18.55 0 18 L 0 2 C 0 1.45 0.196 0.979 0.588 0.588 C 0.979 0.196 1.45 0 2 0 L 14 0 C 14.55 0 15.021 0.196 15.413 0.588 C 15.804 0.979 16 1.45 16 2 L 16 18 C 16 18.55 15.804 19.021 15.413 19.413 C 15.021 19.804 14.55 20 14 20 L 2 20 Z M 8 12 C 8.967 12 9.792 11.658 10.475 10.975 C 11.158 10.292 11.5 9.467 11.5 8.5 C 11.5 7.533 11.158 6.708 10.475 6.025 C 9.792 5.342 8.967 5 8 5 C 7.033 5 6.208 5.342 5.525 6.025 C 4.842 6.708 4.5 7.533 4.5 8.5 C 4.5 9.467 4.842 10.292 5.525 10.975 C 6.208 11.658 7.033 12 8 12 Z" fill="currentColor" fill-rule="nonzero"></path>
</svg>