<svg xmlns="http://www.w3.org/2000/svg" width="14" height="20" viewBox="0 0 14 20" fill="none">
  <path d="M 7 17 C 4.65 15.267 2.896 13.583 1.738 11.95 C 0.579 10.317 0 8.717 0 7.15 C 0 5.067 0.65 3.354 1.95 2.013 C 3.25 0.671 4.933 0 7 0 C 9.067 0 10.75 0.671 12.05 2.013 C 13.35 3.354 14 5.067 14 7.15 C 14 8.717 13.421 10.317 12.262 11.95 C 11.104 13.583 9.35 15.267 7 17 Z M 7 9 C 7.55 9 8.021 8.804 8.413 8.413 C 8.804 8.021 9 7.55 9 7 C 9 6.45 8.804 5.979 8.413 5.588 C 8.021 5.196 7.55 5 7 5 C 6.45 5 5.979 5.196 5.588 5.588 C 5.196 5.979 5 6.45 5 7 C 5 7.55 5.196 8.021 5.588 8.413 C 5.979 8.804 6.45 9 7 9 Z M 0 20 L 0 18 L 14 18 L 14 20 L 0 20 Z" fill="currentColor" fill-rule="nonzero"></path>
</svg>