<svg xmlns="http://www.w3.org/2000/svg" width="18" height="21" viewBox="0 0 18 21" fill="none">
  <path d="M 2 21 C 1.45 21 0.979 20.804 0.588 20.413 C 0.196 20.021 0 19.55 0 19 L 0 9 C 0 8.45 0.196 7.979 0.588 7.588 C 0.979 7.196 1.45 7 2 7 L 6 7 L 6 9 L 2 9 L 2 19 L 16 19 L 16 9 L 12 9 L 12 7 L 16 7 C 16.55 7 17.021 7.196 17.413 7.588 C 17.804 7.979 18 8.45 18 9 L 18 19 C 18 19.55 17.804 20.021 17.413 20.413 C 17.021 20.804 16.55 21 16 21 L 2 21 Z M 9 16 L 5 12 L 6.4 10.6 L 8 12.175 L 8 0 L 10 0 L 10 12.175 L 11.6 10.6 L 13 12 L 9 16 Z" fill="currentColor" fill-rule="nonzero"></path>
</svg>