<svg xmlns="http://www.w3.org/2000/svg" width="18" height="21" viewBox="0 0 18 21" fill="none">
  <path d="M 9 21 C 7.75 21 6.579 20.763 5.488 20.288 C 4.396 19.813 3.446 19.171 2.638 18.363 C 1.829 17.554 1.188 16.604 0.713 15.512 C 0.238 14.421 0 13.25 0 12 L 2 12 C 2 13.95 2.679 15.604 4.037 16.962 C 5.396 18.321 7.05 19 9 19 C 10.95 19 12.604 18.321 13.963 16.962 C 15.321 15.604 16 13.95 16 12 C 16 10.05 15.321 8.396 13.963 7.037 C 12.604 5.679 10.95 5 9 5 L 8.85 5 L 10.4 6.55 L 9 8 L 5 4 L 9 0 L 10.4 1.45 L 8.85 3 L 9 3 C 10.25 3 11.421 3.238 12.512 3.713 C 13.604 4.188 14.554 4.829 15.363 5.638 C 16.171 6.446 16.813 7.396 17.288 8.488 C 17.763 9.579 18 10.75 18 12 C 18 13.25 17.763 14.421 17.288 15.512 C 16.813 16.604 16.171 17.554 15.363 18.363 C 14.554 19.171 13.604 19.813 12.512 20.288 C 11.421 20.763 10.25 21 9 21 Z" fill="currentColor" fill-rule="nonzero"></path>
</svg>