<svg xmlns="http://www.w3.org/2000/svg" width="22.600" height="22.600" viewBox="0 0 22.600 22.600" fill="none">
  <path d="M 11.3 16.3 C 11.583 16.3 11.821 16.204 12.012 16.013 C 12.204 15.821 12.3 15.583 12.3 15.3 C 12.3 15.017 12.204 14.779 12.012 14.588 C 11.821 14.396 11.583 14.3 11.3 14.3 C 11.017 14.3 10.779 14.396 10.588 14.588 C 10.396 14.779 10.3 15.017 10.3 15.3 C 10.3 15.583 10.396 15.821 10.588 16.013 C 10.779 16.204 11.017 16.3 11.3 16.3 Z M 10.3 12.3 L 12.3 12.3 L 12.3 6.3 L 10.3 6.3 L 10.3 12.3 Z M 11.3 22.6 L 7.95 19.3 L 3.3 19.3 L 3.3 14.65 L 0 11.3 L 3.3 7.95 L 3.3 3.3 L 7.95 3.3 L 11.3 0 L 14.65 3.3 L 19.3 3.3 L 19.3 7.95 L 22.6 11.3 L 19.3 14.65 L 19.3 19.3 L 14.65 19.3 L 11.3 22.6 Z M 11.3 19.8 L 13.8 17.3 L 17.3 17.3 L 17.3 13.8 L 19.8 11.3 L 17.3 8.8 L 17.3 5.3 L 13.8 5.3 L 11.3 2.8 L 8.8 5.3 L 5.3 5.3 L 5.3 8.8 L 2.8 11.3 L 5.3 13.8 L 5.3 17.3 L 8.8 17.3 L 11.3 19.8 Z" fill="currentColor" fill-rule="nonzero"></path>
</svg>