<svg xmlns="http://www.w3.org/2000/svg" width="18" height="18" viewBox="0 0 18 18" fill="none">
  <path d="M 18 4 L 18 16 C 18 16.55 17.804 17.021 17.413 17.413 C 17.021 17.804 16.55 18 16 18 L 2 18 C 1.45 18 0.979 17.804 0.588 17.413 C 0.196 17.021 0 16.55 0 16 L 0 2 C 0 1.45 0.196 0.979 0.588 0.588 C 0.979 0.196 1.45 0 2 0 L 14 0 L 18 4 Z M 16 4.85 L 13.15 2 L 2 2 L 2 16 L 16 16 L 16 4.85 Z M 9 15 C 9.833 15 10.542 14.708 11.125 14.125 C 11.708 13.542 12 12.833 12 12 C 12 11.167 11.708 10.458 11.125 9.875 C 10.542 9.292 9.833 9 9 9 C 8.167 9 7.458 9.292 6.875 9.875 C 6.292 10.458 6 11.167 6 12 C 6 12.833 6.292 13.542 6.875 14.125 C 7.458 14.708 8.167 15 9 15 Z M 3 7 L 12 7 L 12 3 L 3 3 L 3 7 Z" fill="currentColor" fill-rule="nonzero"></path>
</svg>