<svg xmlns="http://www.w3.org/2000/svg" width="18" height="18" viewBox="0 0 18 18" fill="none">
  <path d="M 16.6 18 L 10.3 11.7 C 9.8 12.1 9.225 12.417 8.575 12.65 C 7.925 12.883 7.233 13 6.5 13 C 4.683 13 3.146 12.371 1.888 11.113 C 0.629 9.854 0 8.317 0 6.5 C 0 4.683 0.629 3.146 1.888 1.888 C 3.146 0.629 4.683 0 6.5 0 C 8.317 0 9.854 0.629 11.113 1.888 C 12.371 3.146 13 4.683 13 6.5 C 13 7.233 12.883 7.925 12.65 8.575 C 12.417 9.225 12.1 9.8 11.7 10.3 L 18 16.6 L 16.6 18 Z M 6.5 11 C 7.75 11 8.813 10.563 9.688 9.688 C 10.563 8.813 11 7.75 11 6.5 C 11 5.25 10.563 4.188 9.688 3.313 C 8.813 2.438 7.75 2 6.5 2 C 5.25 2 4.188 2.438 3.313 3.313 C 2.438 4.188 2 5.25 2 6.5 C 2 7.75 2.438 8.813 3.313 9.688 C 4.188 10.563 5.25 11 6.5 11 Z" fill="currentColor" fill-rule="nonzero"></path>
</svg>