<svg xmlns="http://www.w3.org/2000/svg" width="20.100" height="20" viewBox="0 0 20.100 20" fill="none">
  <path d="M 7.3 20 L 6.9 16.8 C 6.683 16.717 6.479 16.617 6.287 16.5 C 6.096 16.383 5.908 16.258 5.725 16.125 L 2.75 17.375 L 0 12.625 L 2.575 10.675 C 2.558 10.558 2.55 10.446 2.55 10.338 L 2.55 9.663 C 2.55 9.554 2.558 9.442 2.575 9.325 L 0 7.375 L 2.75 2.625 L 5.725 3.875 C 5.908 3.742 6.1 3.617 6.3 3.5 C 6.5 3.383 6.7 3.283 6.9 3.2 L 7.3 0 L 12.8 0 L 13.2 3.2 C 13.417 3.283 13.621 3.383 13.813 3.5 C 14.004 3.617 14.192 3.742 14.375 3.875 L 17.35 2.625 L 20.1 7.375 L 17.525 9.325 C 17.542 9.442 17.55 9.554 17.55 9.663 L 17.55 10.338 C 17.55 10.446 17.533 10.558 17.5 10.675 L 20.075 12.625 L 17.325 17.375 L 14.375 16.125 C 14.192 16.258 14 16.383 13.8 16.5 C 13.6 16.617 13.4 16.717 13.2 16.8 L 12.8 20 L 7.3 20 Z M 9.05 18 L 11.025 18 L 11.375 15.35 C 11.892 15.217 12.371 15.021 12.813 14.762 C 13.254 14.504 13.658 14.192 14.025 13.825 L 16.5 14.85 L 17.475 13.15 L 15.325 11.525 C 15.408 11.292 15.467 11.046 15.5 10.788 C 15.533 10.529 15.55 10.267 15.55 10 C 15.55 9.733 15.533 9.471 15.5 9.213 C 15.467 8.954 15.408 8.708 15.325 8.475 L 17.475 6.85 L 16.5 5.15 L 14.025 6.2 C 13.658 5.817 13.254 5.496 12.813 5.238 C 12.371 4.979 11.892 4.783 11.375 4.65 L 11.05 2 L 9.075 2 L 8.725 4.65 C 8.208 4.783 7.729 4.979 7.287 5.238 C 6.846 5.496 6.442 5.808 6.075 6.175 L 3.6 5.15 L 2.625 6.85 L 4.775 8.45 C 4.692 8.7 4.633 8.95 4.6 9.2 C 4.567 9.45 4.55 9.717 4.55 10 C 4.55 10.267 4.567 10.525 4.6 10.775 C 4.633 11.025 4.692 11.275 4.775 11.525 L 2.625 13.15 L 3.6 14.85 L 6.075 13.8 C 6.442 14.183 6.846 14.504 7.287 14.762 C 7.729 15.021 8.208 15.217 8.725 15.35 L 9.05 18 Z M 10.1 13.5 C 11.067 13.5 11.892 13.158 12.575 12.475 C 13.258 11.792 13.6 10.967 13.6 10 C 13.6 9.033 13.258 8.208 12.575 7.525 C 11.892 6.842 11.067 6.5 10.1 6.5 C 9.117 6.5 8.288 6.842 7.613 7.525 C 6.938 8.208 6.6 9.033 6.6 10 C 6.6 10.967 6.938 11.792 7.613 12.475 C 8.288 13.158 9.117 13.5 10.1 13.5 Z" fill="currentColor" fill-rule="nonzero"></path>
</svg>