<svg xmlns="http://www.w3.org/2000/svg" width="20" height="20" viewBox="0 0 20 20" fill="none">
  <path d="M 4 6 L 14 6 L 14 4 L 4 4 L 4 6 Z M 4 10 L 8.75 10 C 9.083 9.6 9.446 9.229 9.838 8.887 C 10.229 8.546 10.658 8.25 11.125 8 L 4 8 L 4 10 Z M 4 14 L 7.05 14 C 7.083 13.65 7.146 13.308 7.238 12.975 C 7.329 12.642 7.442 12.317 7.575 12 L 4 12 L 4 14 Z M 2 18 C 1.45 18 0.979 17.804 0.588 17.413 C 0.196 17.021 0 16.55 0 16 L 0 2 C 0 1.45 0.196 0.979 0.588 0.588 C 0.979 0.196 1.45 0 2 0 L 16 0 C 16.55 0 17.021 0.196 17.413 0.588 C 17.804 0.979 18 1.45 18 2 L 18 7.575 C 17.683 7.442 17.358 7.329 17.025 7.238 C 16.692 7.146 16.35 7.083 16 7.05 L 16 2 L 2 2 L 2 16 L 7.05 16 C 7.083 16.35 7.146 16.692 7.238 17.025 C 7.329 17.358 7.442 17.683 7.575 18 L 2 18 Z M 15 20 C 13.783 20 12.721 19.621 11.813 18.863 C 10.904 18.104 10.333 17.15 10.1 16 L 11.65 16 C 11.867 16.733 12.279 17.333 12.887 17.8 C 13.496 18.267 14.2 18.5 15 18.5 C 15.967 18.5 16.792 18.158 17.475 17.475 C 18.158 16.792 18.5 15.967 18.5 15 C 18.5 14.033 18.158 13.208 17.475 12.525 C 16.792 11.842 15.967 11.5 15 11.5 C 14.517 11.5 14.067 11.587 13.65 11.762 C 13.233 11.938 12.867 12.183 12.55 12.5 L 14 12.5 L 14 14 L 10 14 L 10 10 L 11.5 10 L 11.5 11.425 C 11.95 10.992 12.475 10.646 13.075 10.387 C 13.675 10.129 14.317 10 15 10 C 16.383 10 17.563 10.488 18.538 11.463 C 19.513 12.438 20 13.617 20 15 C 20 16.383 19.513 17.563 18.538 18.538 C 17.563 19.513 16.383 20 15 20 Z" fill="currentColor" fill-rule="nonzero"></path>
</svg>