<svg xmlns="http://www.w3.org/2000/svg" width="18" height="22" viewBox="0 0 18 22" fill="none">
  <path d="M 7 22 L 7 20 L 2 20 C 1.45 20 0.979 19.804 0.588 19.413 C 0.196 19.021 0 18.55 0 18 L 0 4 C 0 3.45 0.196 2.979 0.588 2.588 C 0.979 2.196 1.45 2 2 2 L 7 2 L 7 0 L 9 0 L 9 22 L 7 22 Z M 2 18 L 7 18 L 7 16 L 4 16 L 4 14 L 7 14 L 7 12 L 4 12 L 4 10 L 7 10 L 7 8 L 4 8 L 4 6 L 7 6 L 7 4 L 2 4 L 2 18 Z M 11 4 L 11 2 L 16 2 C 16.55 2 17.021 2.196 17.413 2.588 C 17.804 2.979 18 3.45 18 4 L 18 18 C 18 18.55 17.804 19.021 17.413 19.413 C 17.021 19.804 16.55 20 16 20 L 11 20 L 11 18 L 16 18 L 16 4 L 11 4 Z M 11 12 L 11 10 L 14 10 L 14 12 L 11 12 Z M 11 8 L 11 6 L 14 6 L 14 8 L 11 8 Z" fill="currentColor" fill-rule="nonzero"></path>
</svg>