<svg xmlns="http://www.w3.org/2000/svg" width="20" height="10" viewBox="0 0 20 10" fill="none">
  <path d="M 4.75 4.406 L 5.094 5.563 L 3.875 5.563 L 4.25 4.406 C 4.344 4.031 4.469 3.344 4.469 3.344 L 4.5 3.344 C 4.5 3.344 4.625 4.031 4.75 4.406 Z M 19.25 0 C 19.656 0 20 0.344 20 0.75 L 20 9.25 C 20 9.688 19.656 10 19.25 10 L 10.5 10 L 10.5 0 L 19.25 0 Z M 18.5 3.75 L 18.5 3.25 C 18.5 3.063 18.313 2.875 18.125 2.875 L 16.125 2.875 L 16.125 2.375 C 16.125 2.188 15.938 2 15.75 2 L 15.25 2 C 15.031 2 14.875 2.188 14.875 2.375 L 14.875 2.875 L 12.875 2.875 C 12.656 2.875 12.5 3.063 12.5 3.25 L 12.5 3.75 C 12.5 3.969 12.656 4.125 12.875 4.125 L 16.438 4.125 C 16.25 4.594 15.906 5.031 15.5 5.5 C 15.281 5.281 15.094 5.063 14.938 4.844 C 14.844 4.688 14.625 4.625 14.438 4.719 L 14.219 4.875 L 14.031 5 C 13.844 5.094 13.781 5.344 13.906 5.531 C 14.094 5.781 14.313 6.063 14.563 6.313 C 14.313 6.531 14.031 6.719 13.75 6.875 C 13.563 7 13.5 7.219 13.625 7.406 L 13.875 7.813 C 13.969 8 14.188 8.063 14.375 7.969 C 14.781 7.719 15.156 7.469 15.5 7.188 C 15.844 7.469 16.188 7.719 16.594 7.969 C 16.781 8.063 17 8 17.125 7.813 L 17.375 7.406 C 17.469 7.219 17.406 7 17.25 6.875 C 16.969 6.719 16.688 6.531 16.406 6.313 C 17.063 5.625 17.531 4.875 17.75 4.125 L 18.125 4.125 C 18.313 4.125 18.5 3.969 18.5 3.75 Z M 0 0.75 C 0 0.344 0.313 0 0.75 0 L 9.5 0 L 9.5 10 L 0.75 10 C 0.313 10 0 9.688 0 9.25 L 0 0.75 Z M 1.813 7.531 C 1.75 7.75 1.938 8 2.188 8 L 2.906 8 C 3.063 8 3.219 7.906 3.25 7.75 L 3.531 6.75 L 5.438 6.75 L 5.719 7.75 C 5.75 7.906 5.906 8 6.063 8 L 6.781 8 C 7.063 8 7.219 7.75 7.156 7.531 L 5.344 2.219 C 5.313 2.094 5.156 1.969 5 1.969 L 3.969 1.969 C 3.813 1.969 3.688 2.094 3.625 2.219 L 1.813 7.531 Z" fill="currentColor" fill-rule="nonzero"></path>
</svg>