<svg xmlns="http://www.w3.org/2000/svg" width="11" height="10" viewBox="0 0 11 10" fill="none">
  <path d="M 10.776 4.171 L 8.854 0.829 C 8.555 0.319 8.011 0 7.422 0 L 3.578 0 C 2.989 0 2.445 0.319 2.146 0.829 L 0.224 4.171 C -0.075 4.681 -0.075 5.319 0.224 5.829 L 2.146 9.171 C 2.445 9.681 2.989 10 3.578 10 L 7.422 10 C 8.011 10 8.555 9.681 8.854 9.171 L 10.776 5.829 C 11.075 5.319 11.075 4.681 10.776 4.171 Z M 4.865 7.24 L 2.636 5 L 3.587 4.044 L 4.865 5.328 L 7.413 2.75 L 8.364 3.716 L 4.865 7.231 L 4.865 7.24 Z" fill="currentColor" fill-rule="nonzero"></path>
</svg>