<svg xmlns="http://www.w3.org/2000/svg" width="21.001" height="14.025" viewBox="0 0 21.001 14.025" fill="none">
  <path d="M 20.891 6.501 C 20.964 6.647 21.001 6.83 21.001 7.049 C 21.001 7.232 20.964 7.414 20.891 7.56 C 18.919 11.432 14.975 14.025 10.519 14.025 C 6.026 14.025 2.082 11.432 0.11 7.56 C 0.037 7.414 0 7.232 0 7.013 C 0 6.83 0.037 6.647 0.11 6.501 C 2.082 2.63 6.026 0 10.519 0 C 14.975 0 18.919 2.63 20.891 6.501 Z M 10.519 12.272 L 10.519 12.308 C 13.404 12.308 15.778 9.934 15.778 7.049 L 15.778 7.013 C 15.778 4.127 13.404 1.753 10.519 1.753 C 7.597 1.753 5.259 4.127 5.259 7.013 C 5.259 9.934 7.597 12.272 10.519 12.272 Z M 10.519 3.506 L 10.519 3.543 C 12.454 3.543 14.025 5.077 14.025 7.013 C 14.025 8.948 12.454 10.519 10.519 10.519 C 8.583 10.519 7.013 8.948 7.013 7.013 C 7.013 6.72 7.049 6.392 7.122 6.099 C 7.414 6.319 7.779 6.428 8.181 6.428 C 9.131 6.428 9.898 5.661 9.898 4.712 C 9.898 4.31 9.788 3.945 9.569 3.652 C 9.861 3.579 10.19 3.543 10.519 3.506 Z" fill="currentColor" fill-rule="nonzero"></path>
</svg>