<svg xmlns="http://www.w3.org/2000/svg" width="21.800" height="17" viewBox="0 0 21.800 17" fill="none">
  <path d="M 11 10.2 C 10.25 10.2 9.613 9.938 9.088 9.413 C 8.563 8.888 8.3 8.25 8.3 7.5 C 8.3 6.75 8.563 6.113 9.088 5.588 C 9.613 5.063 10.25 4.8 11 4.8 C 11.75 4.8 12.388 5.063 12.913 5.588 C 13.438 6.113 13.7 6.75 13.7 7.5 C 13.7 8.25 13.438 8.888 12.913 9.413 C 12.388 9.938 11.75 10.2 11 10.2 Z M 11 15 C 8.567 15 6.35 14.321 4.35 12.963 C 2.35 11.604 0.9 9.783 0 7.5 C 0.9 5.217 2.35 3.396 4.35 2.038 C 6.35 0.679 8.567 0 11 0 C 13.35 0 15.496 0.633 17.438 1.9 C 19.379 3.167 20.833 4.867 21.8 7 L 19.525 7 C 18.658 5.45 17.467 4.229 15.95 3.338 C 14.433 2.446 12.783 2 11 2 C 9.117 2 7.388 2.496 5.813 3.487 C 4.238 4.479 3.033 5.817 2.2 7.5 C 3.033 9.183 4.238 10.521 5.813 11.512 C 7.388 12.504 9.117 13 11 13 C 11.333 13 11.667 12.983 12 12.95 C 12.333 12.917 12.667 12.867 13 12.8 L 13 14.825 C 12.667 14.875 12.333 14.917 12 14.95 C 11.667 14.983 11.333 15 11 15 Z M 11 12 C 11.367 12 11.721 11.958 12.063 11.875 C 12.404 11.792 12.725 11.675 13.025 11.525 C 13.108 10.692 13.371 9.942 13.813 9.275 C 14.254 8.608 14.817 8.075 15.5 7.675 L 15.5 7.5 C 15.5 6.25 15.063 5.188 14.188 4.313 C 13.313 3.438 12.25 3 11 3 C 9.75 3 8.688 3.438 7.813 4.313 C 6.938 5.188 6.5 6.25 6.5 7.5 C 6.5 8.75 6.938 9.813 7.813 10.688 C 8.688 11.563 9.75 12 11 12 Z M 16 17 C 15.717 17 15.479 16.904 15.288 16.712 C 15.096 16.521 15 16.283 15 16 L 15 13 C 15 12.717 15.096 12.479 15.288 12.288 C 15.479 12.096 15.717 12 16 12 L 16 11 C 16 10.45 16.196 9.979 16.588 9.588 C 16.979 9.196 17.45 9 18 9 C 18.55 9 19.021 9.196 19.413 9.588 C 19.804 9.979 20 10.45 20 11 L 20 12 C 20.283 12 20.521 12.096 20.713 12.288 C 20.904 12.479 21 12.717 21 13 L 21 16 C 21 16.283 20.904 16.521 20.713 16.712 C 20.521 16.904 20.283 17 20 17 L 16 17 Z M 17 12 L 19 12 L 19 11 C 19 10.717 18.904 10.479 18.713 10.288 C 18.521 10.096 18.283 10 18 10 C 17.717 10 17.479 10.096 17.288 10.288 C 17.096 10.479 17 10.717 17 11 L 17 12 Z" fill="currentColor" fill-rule="nonzero"></path>
</svg>