<svg xmlns="http://www.w3.org/2000/svg" width="22" height="15" viewBox="0 0 22 15" fill="none">
  <path d="M 11 12 C 12.25 12 13.313 11.563 14.188 10.688 C 15.063 9.813 15.5 8.75 15.5 7.5 C 15.5 6.25 15.063 5.188 14.188 4.313 C 13.313 3.438 12.25 3 11 3 C 9.75 3 8.688 3.438 7.813 4.313 C 6.938 5.188 6.5 6.25 6.5 7.5 C 6.5 8.75 6.938 9.813 7.813 10.688 C 8.688 11.563 9.75 12 11 12 Z M 11 10.2 C 10.25 10.2 9.613 9.938 9.088 9.413 C 8.563 8.888 8.3 8.25 8.3 7.5 C 8.3 6.75 8.563 6.113 9.088 5.588 C 9.613 5.063 10.25 4.8 11 4.8 C 11.75 4.8 12.388 5.063 12.913 5.588 C 13.438 6.113 13.7 6.75 13.7 7.5 C 13.7 8.25 13.438 8.888 12.913 9.413 C 12.388 9.938 11.75 10.2 11 10.2 Z M 11 15 C 8.567 15 6.35 14.321 4.35 12.963 C 2.35 11.604 0.9 9.783 0 7.5 C 0.9 5.217 2.35 3.396 4.35 2.038 C 6.35 0.679 8.567 0 11 0 C 13.433 0 15.65 0.679 17.65 2.038 C 19.65 3.396 21.1 5.217 22 7.5 C 21.1 9.783 19.65 11.604 17.65 12.963 C 15.65 14.321 13.433 15 11 15 Z M 11 13 C 12.883 13 14.613 12.504 16.188 11.512 C 17.763 10.521 18.967 9.183 19.8 7.5 C 18.967 5.817 17.763 4.479 16.188 3.487 C 14.613 2.496 12.883 2 11 2 C 9.117 2 7.387 2.496 5.813 3.487 C 4.238 4.479 3.033 5.817 2.2 7.5 C 3.033 9.183 4.238 10.521 5.813 11.512 C 7.387 12.504 9.117 13 11 13 Z" fill="currentColor" fill-rule="nonzero"></path>
</svg>